<svg width="1600" height="1600" viewBox="208.21916313309276 -6.546853740538651 383.5616754688015 383.5616754688015" xmlns="http://www.w3.org/2000/svg" xmlns:xlink="http://www.w3.org/1999/xlink"><rect x="208.21916313309276" y="-6.546853740538651"
      width="383.5616754688015" height="383.5616754688015"
      rx="38.35616754688015" ry="38.35616754688015"
      fill="none"/>
<g class="icon-group" data-width="319.6347295573346" data-height="219.16819686962006" data-x="240.18263608882623" data-y="75.64988555905208"><g id="shape_2CZDBaSoEu" ref="shape_2CZDBaSoEu" key="shape_2CZDBaSoEu" mask="" class=" icon">
                <g transform="translate(240.1826484018265,75.64988555905208) rotate(0,159.8173515981735,109.58409111699542) scale(1,1)" style="opacity: 1;mix-blend-mode: undefined;" filter="">
                  <!--普通元素-->
                  <svg version="1.0" id="图层_1" xmlns="http://www.w3.org/2000/svg" xmlns:xlink="http://www.w3.org/1999/xlink" x="0px" y="0px" width="319.634703196347" height="219.16818223399085" viewBox="-0.000354766845703125 31.5 199.94651794433594 137.09999084472656" enable-background="new 0 0 200 200" xml:space="preserve" class="style-removed" preserveAspectRatio="none" data-parent="shape_2CZDBaSoEu">
<linearGradient id="SVGID_1_" gradientUnits="userSpaceOnUse" x1="-579.7389" y1="-293.5587" x2="-574.1816" y2="-298.155" gradientTransform="matrix(29.2201 0 0 -20.0272 16960.623 -5826.6553)">
	<stop offset="0" stop-color="#66FFCC"></stop>
	<stop offset="0.3294" stop-color="#00CCFF"></stop>
	<stop offset="0.6392" stop-color="#0000FF"></stop>
	<stop offset="1" stop-color="#FF00FF"></stop>
</linearGradient>
<path fill-rule="evenodd" clip-rule="evenodd" fill="url(#SVGID_1_)" d="M108.4,31.5c26.5,0,49.4,15,60.8,37
	C159,53,141.5,42.8,121.6,42.8C90,42.8,64.4,68.4,64.4,100s25.6,57.2,57.2,57.2c19.9,0,37.4-10.2,47.7-25.6
	c-11.4,22-34.4,37-60.8,37c-37.9,0-68.5-30.7-68.5-68.5C39.8,62.1,70.5,31.5,108.4,31.5z M144.9,86.1c-39.7,10.2-65.4,9.2-73.7,8.5
	l-2.6-0.3c0,2.6,0.8,7.9,1.2,8.7c4.5,0,8.8,0.5,13.3,0.5c12.8,0.1,35.3-1.3,66-9.4c2.6-0.7,4.7-1.4,6.4-2.1
	C153.9,90,150,88,144.9,86.1L144.9,86.1z M139,132.1c-13,0-24.7-5.1-32.5-13.2c13.7-1.1,28-3.5,41.4-6.8
	c14.9-3.7,31.7-9.6,39.1-13.4c19.1-9.9,15.2-19.3,0.4-23.1c-10.1-2.6-46.2-6.4-68.9-3.1c-4.4-2.7-7.4-7.6-7.4-13.2
	c0,8.5-6.9,15.4-15.4,15.4c8.5,0,15.4,6.9,15.4,15.4c0-5.6,3-10.6,7.5-13.3c28.7,4.2,60.5,14.9,30,22.9
	c-40.6,10.7-66.9,9.7-75.3,8.9l-2.6-0.3c0.1,0.3,0.3,0.7,0.4,1c0.3,0.6,0.6,1.3,1,2.3c2.3,5.7,7,17.5,24.9,26.9
	c0.1,0,0.1,0.1,0.2,0.1c12.7,6.7,26.5,8.4,39.2,5.8c18.2-3.7,33.2-16,40.8-32.4c0.3-0.7,0.6-1.3,0.9-2l-1.1,1.9l0.2-0.6
	C170.1,123.7,155.6,132,139,132.1L139,132.1z M39,81.8c-6.9,18.6-4.5,40.2,8.4,57.2c1.2,1.6,2.4,3,3.7,4.4
	C20.5,136.9-0.1,124.6,0,110.7C0.1,98.7,15.4,88.3,39,81.8L39,81.8z" stroke-width="0"></path>
</svg>
                </g>
              </g></g></svg>