<svg xmlns="http://www.w3.org/2000/svg" xmlns:xlink="http://www.w3.org/1999/xlink" width="1600" height="1200" viewBox="-208.0147478284552 -37.11291717678938 1150.238568027469 862.6789260206017" style="background: #ffffff"><g class="horizontal-icon" transform="translate(-16.308319823877014, 293.1380168525389) scale(0.9224744321924467)"><svg width="319.6347295573346" height="219.16819686962006" viewBox="240.18263608882623 75.64988555905208 319.6347295573346 219.16819686962006" xmlns="http://www.w3.org/2000/svg" xmlns:xlink="http://www.w3.org/1999/xlink"><g class="icon-group" data-width="319.6347295573346" data-height="219.16819686962006" data-x="240.18263608882623" data-y="75.64988555905208"><g id="shape_2CZDBaSoEu" ref="shape_2CZDBaSoEu" key="shape_2CZDBaSoEu" mask="" class=" icon">
                <g transform="translate(240.1826484018265,75.64988555905208) rotate(0,159.8173515981735,109.58409111699542) scale(1,1)" style="opacity: 1;mix-blend-mode: undefined;" filter="">
                  <!--普通元素-->
                  <svg version="1.0" id="图层_1" xmlns="http://www.w3.org/2000/svg" xmlns:xlink="http://www.w3.org/1999/xlink" x="0px" y="0px" width="319.634703196347" height="219.16818223399085" viewBox="-0.000354766845703125 31.5 199.94651794433594 137.09999084472656" enable-background="new 0 0 200 200" xml:space="preserve" class="style-removed" preserveAspectRatio="none" data-parent="shape_2CZDBaSoEu">
<linearGradient id="SVGID_1_" gradientUnits="userSpaceOnUse" x1="-579.7389" y1="-293.5587" x2="-574.1816" y2="-298.155" gradientTransform="matrix(29.2201 0 0 -20.0272 16960.623 -5826.6553)">
	<stop offset="0" stop-color="#66FFCC"></stop>
	<stop offset="0.3294" stop-color="#00CCFF"></stop>
	<stop offset="0.6392" stop-color="#0000FF"></stop>
	<stop offset="1" stop-color="#FF00FF"></stop>
</linearGradient>
<path fill-rule="evenodd" clip-rule="evenodd" fill="url(#SVGID_1_)" d="M108.4,31.5c26.5,0,49.4,15,60.8,37
	C159,53,141.5,42.8,121.6,42.8C90,42.8,64.4,68.4,64.4,100s25.6,57.2,57.2,57.2c19.9,0,37.4-10.2,47.7-25.6
	c-11.4,22-34.4,37-60.8,37c-37.9,0-68.5-30.7-68.5-68.5C39.8,62.1,70.5,31.5,108.4,31.5z M144.9,86.1c-39.7,10.2-65.4,9.2-73.7,8.5
	l-2.6-0.3c0,2.6,0.8,7.9,1.2,8.7c4.5,0,8.8,0.5,13.3,0.5c12.8,0.1,35.3-1.3,66-9.4c2.6-0.7,4.7-1.4,6.4-2.1
	C153.9,90,150,88,144.9,86.1L144.9,86.1z M139,132.1c-13,0-24.7-5.1-32.5-13.2c13.7-1.1,28-3.5,41.4-6.8
	c14.9-3.7,31.7-9.6,39.1-13.4c19.1-9.9,15.2-19.3,0.4-23.1c-10.1-2.6-46.2-6.4-68.9-3.1c-4.4-2.7-7.4-7.6-7.4-13.2
	c0,8.5-6.9,15.4-15.4,15.4c8.5,0,15.4,6.9,15.4,15.4c0-5.6,3-10.6,7.5-13.3c28.7,4.2,60.5,14.9,30,22.9
	c-40.6,10.7-66.9,9.7-75.3,8.9l-2.6-0.3c0.1,0.3,0.3,0.7,0.4,1c0.3,0.6,0.6,1.3,1,2.3c2.3,5.7,7,17.5,24.9,26.9
	c0.1,0,0.1,0.1,0.2,0.1c12.7,6.7,26.5,8.4,39.2,5.8c18.2-3.7,33.2-16,40.8-32.4c0.3-0.7,0.6-1.3,0.9-2l-1.1,1.9l0.2-0.6
	C170.1,123.7,155.6,132,139,132.1L139,132.1z M39,81.8c-6.9,18.6-4.5,40.2,8.4,57.2c1.2,1.6,2.4,3,3.7,4.4
	C20.5,136.9-0.1,124.6,0,110.7C0.1,98.7,15.4,88.3,39,81.8L39,81.8z" stroke-width="0"></path>
</svg>
                </g>
              </g></g></svg></g><g class="brandname"><svg xmlns="http://www.w3.org/2000/svg" version="1.1" xmlns:xlink="http://www.w3.org/1999/xlink" width="1081.3016206479956" height="777.3016206479955" viewBox="0 0 1081.3016206479956 777.3016206479955" data-ligature="true"><g data-role="text" data-width="432.2" data-height="129" transform="translate(324.5508103239978, 324.15081032399775)"><path d="M82.33-36.20L26.69-36.20C21.83-36.20 19.12-33.50 19.12-28.63L19.12 2.05C19.12 6.92 21.39 9.62 25.50 9.62C29.61 9.62 31.77 8.32 31.77 6.05L76.61 6.05L76.61 7.78C76.61 8.86 78.98 9.51 83.31 9.51C87.63 9.51 89.90 6.81 89.90 1.94L89.90-28.63C89.90-33.50 87.20-36.20 82.33-36.20ZM7.67-39.11C10.37-36.09 13.61-35.33 17.61-37.60C23.66-41.06 27.98-44.84 31.01-48.73C33.82-46.79 37.06-44.41 39.98-42.14C43.65-39.33 46.89-39.11 50.03-41.92C52.84-44.52 51.65-47.87 46.89-50.68C43.00-52.84 38.79-55.21 36.30-56.40L46.68-56.40C51.54-56.40 54.24-58.24 54.24-61.48C54.24-64.72 51.54-66.56 46.68-66.56L37.49-66.56C37.60-67.32 37.60-67.96 37.60-68.72L37.60-73.58L44.62-73.58C49.16-73.58 51.65-75.42 51.65-78.66C51.65-81.90 48.95-83.63 44.08-83.63L24.64-83.63C25.07-84.71 25.50-85.79 25.82-86.87C26.58-88.93 24.74-90.55 21.18-91.30C17.40-92.06 15.02-90.11 13.07-85.79C11.99-83.31 10.70-81.04 9.29-78.88C8.32-77.36 7.89-75.85 7.78-74.55C7.56-71.31 10.48-68.29 14.26-69.80C15.56-70.23 16.86-71.20 18.04-72.72L18.69-73.58L25.28-73.58L25.28-68.94C25.28-68.18 25.28-67.42 25.18-66.56L12.10-66.56C7.24-66.56 4.54-64.72 4.54-61.48C4.54-58.24 7.24-56.40 12.10-56.40L22.15-56.40C20.10-53.16 16.86-49.92 11.45-46.89C6.59-44.19 5.19-41.82 7.67-39.11ZM31.77-4.32L31.77-10.59L76.61-10.59L76.61-4.32ZM31.77-19.99L31.77-26.04L76.61-26.04L76.61-19.99ZM65.37-42.68L91.63-42.68C96.49-42.68 99.19-45.38 99.19-50.24L99.19-76.28C99.19-81.15 96.49-83.85 91.63-83.85L65.37-83.85C60.51-83.85 57.81-81.15 57.81-76.28L57.81-50.24C57.81-45.38 60.51-42.68 65.37-42.68ZM69.91-54.13L69.91-72.50L86.33-72.50L86.33-54.13Z" transform="translate(0 111) " fill="#0000FF" stroke="#0000FF" stroke-width="0.18" data-glyph-w="108.05" data-glyph-h="156.4564" data-glyph-ascender="125.338" data-glyph-descender="-31.118399999999998" data-kerning="0"></path><path d="M95.52-18.26L80.28-18.26L80.28-24.74L86.44-24.74C90.44-24.74 92.60-27.44 92.60-32.31L92.60-59.00C92.60-63.86 89.90-66.56 85.04-66.56L25.28-66.56C20.42-66.56 17.72-63.86 17.72-59.00L17.72-32.31C17.72-27.44 20.42-24.74 25.28-24.74L31.01-24.74L31.01-18.26L12.75-18.26C7.89-18.26 5.19-16.42 5.19-13.07C5.19-9.72 7.89-7.89 12.75-7.89L26.80-7.89C24.64-5.94 21.29-4.00 16.42-2.38C14.59-1.73 13.29-0.76 12.53 0.32C10.48 3.03 11.67 6.81 15.56 8.10C17.18 8.64 19.02 8.54 21.07 7.89C33.71 3.57 39.87-1.94 42.46-7.89L66.77-7.89L66.77 1.94C66.77 6.81 69.15 9.51 73.58 9.51C77.90 9.51 80.28 6.81 80.28 1.94L80.28-7.89L95.52-7.89C100.38-7.89 103.08-9.72 103.08-13.07C103.08-16.42 100.38-18.26 95.52-18.26ZM7.56-67.75C11.02-65.37 14.48-65.48 17.61-68.94C19.12-70.66 20.64-72.61 22.04-74.55L24.42-74.55C25.28-73.26 26.26-72.07 27.01-70.88C28.74-68.29 30.90-67.21 34.79-68.07C38.25-68.83 37.60-74.55 37.60-74.55L43.33-74.55C47.22-74.55 49.59-76.18 50.78-79.63C51.86-82.66 48.95-84.71 43.44-84.71L28.53-84.71C28.96-85.47 29.39-86.22 29.71-86.98C30.47-88.49 28.63-90.01 24.96-91.09C20.96-92.17 18.15-90.65 15.78-86.66C13.61-83.20 11.13-79.74 8.32-76.82C4.75-72.93 4.21-70.02 7.56-67.75ZM30.79-32.41L30.79-36.41L78.98-36.41L78.98-32.41ZM30.79-43.76L30.79-47.76L78.98-47.76L78.98-43.76ZM30.79-55.00L30.79-58.78L78.98-58.78L78.98-55.00ZM44.08-18.26L44.08-24.74L66.77-24.74L66.77-18.26ZM53.16-70.23C56.94-68.18 60.29-68.40 63.43-71.75C64.29-72.61 65.05-73.58 65.91-74.55L72.61-74.55C73.91-73.26 75.09-72.07 76.28-70.77C78.55-68.18 81.15-67.21 84.82-68.29C88.17-69.26 86.87-74.55 86.87-74.55L95.19-74.55C100.05-74.55 102.76-76.39 102.76-79.63C102.76-82.87 100.05-84.71 95.19-84.71L72.93-84.71L74.12-87.20C74.88-88.71 72.83-90.22 69.04-91.19C64.94-92.17 62.24-90.55 59.86-86.55C58.24-83.85 56.19-81.36 54.02-79.09C50.24-75.09 49.70-72.07 53.16-70.23Z" transform="translate(108.05 111) " fill="#0000FF" stroke="#0000FF" stroke-width="0.18" data-glyph-w="108.05" data-glyph-h="156.4564" data-glyph-ascender="125.338" data-glyph-descender="-31.118399999999998" data-kerning="0"></path><path d="M92.81-86.98L54.35-86.98C49.49-86.98 46.79-84.28 46.79-79.42L46.79-36.95C46.79-32.09 49.05-29.39 53.05-29.39C57.05-29.39 59.21-32.09 59.21-36.95L59.21-75.74L87.30-75.74L87.30-36.95C87.30-32.09 89.68-29.39 93.90-29.39C98.11-29.39 100.38-32.09 100.38-36.95L100.38-79.42C100.38-84.28 97.68-86.98 92.81-86.98ZM5.73-25.50C7.35-21.18 11.24-20.42 15.45-24.31L17.50-26.36L17.50 2.05C17.50 6.92 19.67 9.62 23.66 9.62C27.66 9.62 29.82 6.92 29.82 2.05L29.82-32.63L33.60-26.90C35.87-23.34 38.79-23.01 41.17-26.15C43.87-29.61 43.76-32.96 40.73-36.41C38.03-39.55 34.90-43.22 32.52-45.71C35.98-51.22 39.01-57.16 41.49-63.21C43.22-67.42 42.79-70.23 40.52-71.85C38.03-73.58 36.41-74.01 34.79-73.69L26.90-73.69L30.47-75.85C32.74-77.26 32.96-80.28 30.15-84.39L28.63-86.33C25.82-90.11 22.58-90.76 19.12-88.82C15.88-87.09 15.99-83.85 18.91-79.52C20.21-77.47 21.39-75.53 22.26-73.69L13.40-73.69C8.54-73.69 5.83-71.64 5.83-67.86C5.83-64.07 8.54-62.02 13.40-62.02L28.53-62.02C23.66-51.97 16.32-42.36 8.43-35.66C4.97-32.74 4.11-29.71 5.73-25.50ZM41.06 4.75C43.76 7.89 47.11 8.75 51.00 6.05C60.83-0.43 67.32-8.32 71.64-16.75L71.64-3.46C71.64 5.73 75.20 8.32 84.06 8.32L91.52 8.32C100.70 8.32 103.51 4.65 104.81-6.70C105.02-8.75 104.16-10.59 103.19-12.10C101.24-14.91 97.79-17.40 96.06-14.59C95.41-13.40 95.08-11.56 94.87-9.08C94.44-2.81 93.57-1.19 91.63-1.19L86.55-1.19C84.39-1.19 83.63-2.05 83.63-4.97L83.63-22.15C83.63-27.01 81.15-29.71 76.61-29.71C78.77-37.49 79.42-45.16 79.42-51.97L79.42-61.91C79.42-66.77 77.26-69.48 73.26-69.48C69.26-69.48 66.99-66.77 66.99-61.91L66.99-52.30C66.99-37.28 64.61-18.15 43.76-4.00C39.33-0.97 38.36 1.73 41.06 4.75Z" transform="translate(216.1 111) " fill="#0000FF" stroke="#0000FF" stroke-width="0.18" data-glyph-w="108.05" data-glyph-h="156.4564" data-glyph-ascender="125.338" data-glyph-descender="-31.118399999999998" data-kerning="0"></path><path d="M28.53-52.40L28.53-60.18L47.43-60.18L47.43-52.40ZM8.10-21.39C8.10-21.39 8.10-21.29 8.21-21.29C11.02-17.83 14.26-16.53 18.37-18.37C23.01-20.53 27.55-23.12 31.77-25.93L31.77-22.15C31.77-16.42 30.25-9.40 20.21-3.89C18.37-2.92 17.40-1.51 16.86-0.11C15.45 3.24 16.86 6.59 20.31 8.10C22.26 8.86 24.42 8.75 26.80 7.56C42.68-0.43 45.06-12.32 45.06-21.61C45.06-26.47 42.36-29.07 37.49-29.07L35.98-29.07C40.95-32.96 45.38-37.28 48.95-41.92L60.08-41.92C63.64-37.06 67.96-32.74 72.83-28.85L68.72-28.85C66.13-28.85 64.61-26.15 64.61-21.29L64.61 1.73C64.61 6.59 66.99 9.29 71.42 9.29C75.74 9.29 78.12 6.59 78.12 1.73L78.12-25.07C81.90-22.58 85.90-20.42 90.11-18.58C94.33-16.86 97.89-18.69 100.27-21.83L100.49-22.04C103.08-25.50 101.89-27.98 96.81-29.93C88.60-32.85 81.15-37.06 75.42-41.92L85.58-41.92C90.44-41.92 93.14-44.62 93.14-49.49L93.14-80.61C93.14-85.47 90.44-88.17 85.58-88.17L23.23-88.17C18.37-88.17 15.67-85.47 15.67-80.61L15.67-49.49C15.67-44.62 18.37-41.92 23.23-41.92L32.85-41.92C27.23-36.95 19.88-32.63 12.10-29.50C7.02-27.34 5.51-24.64 8.10-21.39ZM28.53-69.91L28.53-77.69L47.43-77.69L47.43-69.91ZM60.51-52.40L60.51-60.18L79.63-60.18L79.63-52.40ZM60.51-69.91L60.51-77.69L79.63-77.69L79.63-69.91Z" transform="translate(324.15 111) " fill="#0000FF" stroke="#0000FF" stroke-width="0.18" data-glyph-w="108.05" data-glyph-h="156.4564" data-glyph-ascender="125.338" data-glyph-descender="-31.118399999999998" data-kerning="0"></path></g></svg></g></svg>